HIERARCHY
ROOT hip
{
	OFFSET 0.000000 0.000000 0.000000 
	CHANNELS 6 Xposition Yposition Zposition Xrotation Zrotation Yrotation
	JOINT abdomen
	{
		OFFSET 0.000000 3.402643 0.000000 
		CHANNELS 3 Xrotation Zrotation Yrotation
		JOINT chest
		{
			OFFSET 0.000000 8.438565 -0.680529 
			CHANNELS 3 Xrotation Zrotation Yrotation
			JOINT neck
			{
				OFFSET 0.000000 10.207942 -0.272212 
				CHANNELS 3 Xrotation Zrotation Yrotation
				JOINT head
				{
					OFFSET 0.000000 3.130431 0.000000 
					CHANNELS 3 Xrotation Zrotation Yrotation
					End Site
					{
						OFFSET 0.000000 3.130435 0.000000 
					}
				}
			}
			JOINT lCollar
			{
				OFFSET 3.470700 6.669187 -0.816635 
				CHANNELS 3 Yrotation Zrotation Xrotation
				JOINT lShldr
				{
					OFFSET 3.198488 0.000000 0.000000 
					CHANNELS 3 Zrotation Yrotation Xrotation
					JOINT lForeArm
					{
						OFFSET 10.139888 0.000000 0.000000 
						CHANNELS 3 Yrotation Zrotation Xrotation
						JOINT lHand
						{
							OFFSET 8.370511 0.000000 0.000000 
							CHANNELS 3 Zrotation Yrotation Xrotation
							End Site
							{
								OFFSET 4.083176 0.000000 0.000000 
							}
						}
					}
				}
			}
			JOINT rCollar
			{
				OFFSET -3.470700 6.669187 -0.816635 
				CHANNELS 3 Yrotation Zrotation Xrotation
				JOINT rShldr
				{
					OFFSET -3.198488 0.000000 0.000000 
					CHANNELS 3 Zrotation Yrotation Xrotation
					JOINT rForeArm
					{
						OFFSET -10.139888 0.000000 0.000000 
						CHANNELS 3 Yrotation Zrotation Xrotation
						JOINT rHand
						{
							OFFSET -8.370511 0.000000 0.000000 
							CHANNELS 3 Zrotation Yrotation Xrotation
							End Site
							{
								OFFSET -4.083176 0.000000 0.000000 
							}
						}
					}
				}
			}
		}
	}
	JOINT lThigh
	{
		OFFSET 5.308129 -1.633274 1.361059 
		CHANNELS 3 Xrotation Zrotation Yrotation
		JOINT lShin
		{
			OFFSET -2.041588 -20.007561 0.000000 
			CHANNELS 3 Xrotation Zrotation Yrotation
			JOINT lFoot
			{
				OFFSET 0.000000 -19.190928 -1.224953 
				CHANNELS 3 Xrotation Yrotation Zrotation
				End Site
				{
					OFFSET 0.000000 -2.449906 4.627600 
				}
			}
		}
	}
	JOINT rThigh
	{
		OFFSET -5.308129 -1.633274 1.361059 
		CHANNELS 3 Xrotation Zrotation Yrotation
		JOINT rShin
		{
			OFFSET 2.041588 -20.007561 0.000000 
			CHANNELS 3 Xrotation Zrotation Yrotation
			JOINT rFoot
			{
				OFFSET 0.000000 -19.190928 -1.224953 
				CHANNELS 3 Xrotation Yrotation Zrotation
				End Site
				{
					OFFSET 0.000000 -2.449906 4.627600 
				}
			}
		}
	}
}
MOTION
Frames: 8
Frame Time: 0.033333
-27.718084 39.257847 -54.180317 -3.046376 -13.750812 90.585846 0.000000 0.000000 0.000000 32.021385 15.349245 3.872271 -8.603516 0.000000 0.000000 -20.356546 -10.131563 20.656876 -2.957607 -0.090307 -0.002318 -67.947533 -39.367748 -10.639014 -90.695313 -44.925171 -19.598213 54.028172 -18.402067 -1.521289 2.957607 0.090307 -0.002334 61.737682 39.204689 -9.488992 76.774055 29.884817 -6.924247 -74.536491 43.340321 1.438856 -29.993372 21.694944 -2.534161 41.432697 -0.494263 -6.306017 -19.235476 -8.486904 -13.840759 -25.320345 -36.733620 -13.029664 32.903149 -0.873675 6.541810 -4.987267 7.864590 27.527798 
-27.894497 38.193710 -52.476017 -4.668964 -10.551599 94.772652 0.000000 0.000000 0.000000 32.246033 14.982390 3.676914 -8.603516 0.000000 0.000000 -20.298365 -8.740774 16.884640 -2.957607 -0.090307 -0.002318 -67.825806 -40.115940 -10.812285 -90.223946 -45.449158 -19.561926 53.812580 -17.665407 -1.276965 2.957607 0.090307 -0.002334 60.850044 38.796337 -10.429610 76.906738 29.890196 -6.967822 -74.245171 42.174725 1.176903 -30.234322 23.945297 -2.512193 42.196033 0.127595 -6.872295 -19.006069 -8.830178 -14.508878 -24.354500 -37.468037 -11.651161 33.531101 0.639415 6.936010 -6.831696 7.389096 29.547583 
-28.016865 37.271881 -51.064713 -5.602674 -7.338210 97.347832 0.000000 0.000000 0.000000 32.396271 14.408833 3.398004 -8.603516 0.000000 0.000000 -20.084812 -7.396840 13.540661 -2.957607 -0.090307 -0.002318 -67.402855 -40.896709 -10.607232 -89.663742 -45.881355 -19.466719 53.870773 -16.925173 -1.167370 2.957607 0.090307 -0.002334 60.093212 38.150085 -11.373710 77.033798 29.902422 -6.977045 -74.191452 41.108704 0.690962 -30.544750 25.603983 -3.634045 42.685108 0.534432 -7.411487 -19.288191 -9.279530 -15.396039 -22.087778 -37.991623 -11.667367 35.999954 1.777578 7.724283 -8.702354 5.271218 30.283682 
-28.093683 36.537792 -50.085892 -5.975735 -4.526156 99.066322 0.000000 0.000000 0.000000 32.595745 13.678948 3.130329 -8.603516 0.000000 0.000000 -19.910652 -6.400702 10.935662 -2.957607 -0.090307 -0.002318 -67.144424 -41.656281 -10.431271 -89.114380 -46.394749 -19.356134 53.417526 -16.355761 -0.969060 2.957607 0.090307 -0.002334 59.333000 37.240131 -12.297485 77.210388 30.034052 -6.929223 -74.316635 40.136948 0.006205 -30.727644 26.520247 -5.395100 43.003529 0.618583 -7.459639 -19.853081 -9.921251 -16.552149 -19.716393 -37.878174 -13.132881 38.448616 1.885219 8.462760 -10.404670 3.397215 30.233751 
-28.176170 36.281738 -49.713123 -5.787068 -2.565003 100.181488 0.000000 0.000000 0.000000 32.557678 13.163006 2.364700 -8.603516 0.000000 0.000000 -19.965429 -5.820839 9.927997 -2.957607 -0.090307 -0.002318 -66.709915 -42.640102 -9.768249 -88.685608 -46.675930 -19.258381 53.623215 -15.828537 -0.994708 2.957607 0.090307 -0.002334 58.809486 36.518074 -13.329835 77.234413 30.287642 -6.743128 -74.156548 39.570263 -0.629879 -31.134687 26.860233 -6.883080 43.145931 0.648689 -7.550633 -19.908688 -9.811371 -17.360060 -18.416681 -37.706642 -14.926388 40.016384 1.484664 8.923118 -11.612523 2.998604 29.562981 
-28.218882 36.392773 -49.881039 -5.434552 -2.420723 100.396042 0.000000 0.000000 0.000000 32.647175 12.739106 1.422392 -8.603516 0.000000 0.000000 -20.179398 -5.414189 10.535312 -2.957607 -0.090307 -0.002318 -65.998459 -43.543438 -9.369270 -88.450478 -46.495525 -19.263514 53.788662 -15.392972 -0.998949 2.957607 0.090307 -0.002334 58.567936 36.248184 -14.200608 77.190163 30.617443 -6.661658 -74.495590 39.033638 -1.183425 -31.637266 26.501917 -7.956529 43.215931 0.588874 -7.555721 -19.317577 -8.871338 -17.759657 -18.778795 -38.023064 -15.113971 39.861313 1.406413 9.478963 -11.043715 2.794628 29.246132 
-28.295700 36.961773 -50.629402 -4.919899 -4.835719 99.565491 0.000000 0.000000 0.000000 32.566372 12.456577 0.442196 -8.603516 0.000000 0.000000 -20.837978 -5.422489 13.062151 -2.957607 -0.090307 -0.002318 -64.980217 -44.445538 -9.782602 -88.478333 -46.064060 -19.249317 53.956932 -14.878756 -1.152448 2.957607 0.090307 -0.002334 58.535336 36.797760 -14.775029 77.137192 31.174572 -6.545082 -74.699776 38.772511 -1.268863 -32.387165 25.690344 -8.261121 43.630764 0.325846 -7.079150 -18.774202 -7.955715 -17.825655 -21.619770 -38.627636 -12.682397 38.211876 1.464939 8.768598 -8.525529 3.460526 29.712286 
-28.381134 37.792618 -51.687885 -4.317367 -7.800343 97.833015 0.000000 0.000000 0.000000 32.483601 12.585224 -0.479534 -8.603516 0.000000 0.000000 -21.712236 -5.764477 16.593166 -2.957607 -0.090307 -0.002318 -63.816635 -45.292717 -10.297376 -88.787575 -45.553734 -19.144344 54.419044 -14.369102 -1.700827 2.957607 0.090307 -0.002334 58.527248 38.024036 -15.474101 76.929321 31.684198 -6.478615 -74.215950 38.927715 -0.804448 -33.348450 24.511103 -8.972888 43.923779 0.120846 -6.393395 -18.424223 -7.240363 -17.985926 -25.046442 -38.529552 -9.929721 35.609695 1.904425 7.293666 -5.329801 4.847806 29.611828 
